<?xml version="1.0" encoding="UTF-8" standalone="no"?>
<svg
   xmlns:dc="http://purl.org/dc/elements/1.1/"
   xmlns:cc="http://creativecommons.org/ns#"
   xmlns:rdf="http://www.w3.org/1999/02/22-rdf-syntax-ns#"
   xmlns:svg="http://www.w3.org/2000/svg"
   xmlns="http://www.w3.org/2000/svg"
   xmlns:sodipodi="http://sodipodi.sourceforge.net/DTD/sodipodi-0.dtd"
   xmlns:inkscape="http://www.inkscape.org/namespaces/inkscape"
   viewBox="0 0 48 48"
   id="svg2"
   version="1.1"
   inkscape:version="0.92.1 r"
   sodipodi:docname="new_customer.svg">
  <metadata
     id="metadata51">
    <rdf:RDF>
      <cc:Work
         rdf:about="">
        <dc:format>image/svg+xml</dc:format>
        <dc:type
           rdf:resource="http://purl.org/dc/dcmitype/StillImage" />
        <dc:title />
      </cc:Work>
    </rdf:RDF>
  </metadata>
  <sodipodi:namedview
     pagecolor="#ffffff"
     bordercolor="#666666"
     borderopacity="1"
     objecttolerance="10"
     gridtolerance="10"
     guidetolerance="10"
     inkscape:pageopacity="0"
     inkscape:pageshadow="2"
     inkscape:window-width="1848"
     inkscape:window-height="1031"
     id="namedview49"
     showgrid="false"
     inkscape:zoom="9.8333334"
     inkscape:cx="38.922208"
     inkscape:cy="9.6744488"
     inkscape:window-x="72"
     inkscape:window-y="28"
     inkscape:window-maximized="1"
     inkscape:current-layer="svg2" />
  <defs
     id="defs4">
    <linearGradient
       id="linearGradient3764"
       x1="1"
       x2="47"
       gradientUnits="userSpaceOnUse"
       gradientTransform="matrix(0,-1,1,0,-1.5e-6,47.999998)">
      <stop
         style="stop-color:#b5945b;stop-opacity:1"
         id="stop7" />
      <stop
         offset="1"
         style="stop-color:#bb9e69;stop-opacity:1"
         id="stop9" />
    </linearGradient>
    <circle
       r="46.3"
       cy="50.6"
       cx="50"
       id="SVGID_1_" />
  </defs>
  <g
     id="g11">
    <path
       d="m 36.31 5 c 5.859 4.062 9.688 10.831 9.688 18.5 c 0 12.426 -10.07 22.5 -22.5 22.5 c -7.669 0 -14.438 -3.828 -18.5 -9.688 c 1.037 1.822 2.306 3.499 3.781 4.969 c 4.085 3.712 9.514 5.969 15.469 5.969 c 12.703 0 23 -10.298 23 -23 c 0 -5.954 -2.256 -11.384 -5.969 -15.469 c -1.469 -1.475 -3.147 -2.744 -4.969 -3.781 z m 4.969 3.781 c 3.854 4.113 6.219 9.637 6.219 15.719 c 0 12.703 -10.297 23 -23 23 c -6.081 0 -11.606 -2.364 -15.719 -6.219 c 4.16 4.144 9.883 6.719 16.219 6.719 c 12.703 0 23 -10.298 23 -23 c 0 -6.335 -2.575 -12.06 -6.719 -16.219 z"
       style="opacity:0.05"
       id="path13" />
    <path
       d="m 41.28 8.781 c 3.712 4.085 5.969 9.514 5.969 15.469 c 0 12.703 -10.297 23 -23 23 c -5.954 0 -11.384 -2.256 -15.469 -5.969 c 4.113 3.854 9.637 6.219 15.719 6.219 c 12.703 0 23 -10.298 23 -23 c 0 -6.081 -2.364 -11.606 -6.219 -15.719 z"
       style="opacity:0.1"
       id="path15" />
    <path
       d="m 31.25 2.375 c 8.615 3.154 14.75 11.417 14.75 21.13 c 0 12.426 -10.07 22.5 -22.5 22.5 c -9.708 0 -17.971 -6.135 -21.12 -14.75 a 23 23 0 0 0 44.875 -7 a 23 23 0 0 0 -16 -21.875 z"
       style="opacity:0.2"
       id="path17" />
  </g>
  <g
     id="g19"
     style="fill:#ff7f2a;fill-opacity:1">
    <path
       d="m 24 1 c 12.703 0 23 10.297 23 23 c 0 12.703 -10.297 23 -23 23 -12.703 0 -23 -10.297 -23 -23 0 -12.703 10.297 -23 23 -23 z"
       style="fill:#ff7f2a;fill-opacity:1"
       id="path21" />
  </g>
  <g
     id="g45">
    <path
       d="m 40.03 7.531 c 3.712 4.084 5.969 9.514 5.969 15.469 0 12.703 -10.297 23 -23 23 c -5.954 0 -11.384 -2.256 -15.469 -5.969 4.178 4.291 10.01 6.969 16.469 6.969 c 12.703 0 23 -10.298 23 -23 0 -6.462 -2.677 -12.291 -6.969 -16.469 z"
       style="opacity:0.1"
       id="path47" />
  </g>
  <style
     id="style1269"
     type="text/css">
	.st0{fill:#FFFFFF;}
	.st1{clip-path:url(#SVGID_2_);}
	.st2{fill:#C2C2C2;}
</style>
  <g
     id="g3086"
     transform="matrix(0.07301802,0,0,0.06886671,8.2409614,6.3900315)"
     style="fill:#f9f9f9;fill-opacity:1">
    <g
       id="g3028"
       style="fill:#f9f9f9;fill-opacity:1">
      <path
         id="path3022"
         d="m 199.671,242.677 c 66.985,0 121.319,-54.353 121.319,-121.271 C 320.99,54.363 266.666,0 199.671,0 132.638,0 78.38,54.373 78.38,121.406 c 0,66.918 54.248,121.271 121.291,121.271 z"
         inkscape:connector-curvature="0"
         style="fill:#f9f9f9;fill-opacity:1" />
      <path
         id="path3024"
         d="m 353.006,275.974 c -6.407,-13.722 -14.478,-27.521 -24.786,-40.688 -5.546,-7.057 -15.663,-14.803 -25.445,-20.109 -25.36,28.419 -62.118,46.416 -103.104,46.416 -40.956,0 -77.705,-17.997 -103.036,-46.35 -9.562,5.432 -19.412,13.178 -24.776,20.215 -17.404,22.711 -44.265,66.728 -48.549,126.044 -0.899,12.518 5.059,31.633 15.52,38.929 19.852,13.895 62.672,31.671 151.833,31.671 30.868,0 56.878,-1.903 78.862,-4.867 -8.874,-14.965 -14.066,-32.369 -14.066,-50.997 -0.01,-54.402 43.509,-98.734 97.547,-100.264 z"
         inkscape:connector-curvature="0"
         style="fill:#f9f9f9;fill-opacity:1" />
      <path
         id="path3026"
         d="m 353.006,294.946 c -44.887,0 -81.281,36.395 -81.281,81.281 0,44.886 36.395,81.28 81.281,81.28 44.886,0 81.281,-36.395 81.281,-81.28 0,-44.886 -36.386,-81.281 -81.281,-81.281 z m 40.124,96.237 h -31.355 v 31.365 c 0,5.192 -4.217,9.399 -9.409,9.399 -5.192,0 -9.41,-4.207 -9.41,-9.399 v -31.355 l -31.354,-0.01 c -5.202,0.01 -9.41,-4.197 -9.4,-9.391 0,-5.201 4.207,-9.409 9.4,-9.409 h 31.364 v -31.355 c 0,-5.192 4.208,-9.399 9.4,-9.391 5.183,0 9.399,4.198 9.409,9.4 v 31.346 h 31.346 c 5.192,0 9.4,4.208 9.41,9.41 -0.001,5.183 -4.209,9.39 -9.401,9.39 z"
         inkscape:connector-curvature="0"
         style="fill:#f9f9f9;fill-opacity:1" />
    </g>
    <g
       id="g3030"
       style="fill:#f9f9f9;fill-opacity:1" />
    <g
       id="g3032"
       style="fill:#f9f9f9;fill-opacity:1" />
    <g
       id="g3034"
       style="fill:#f9f9f9;fill-opacity:1" />
    <g
       id="g3036"
       style="fill:#f9f9f9;fill-opacity:1" />
    <g
       id="g3038"
       style="fill:#f9f9f9;fill-opacity:1" />
    <g
       id="g3040"
       style="fill:#f9f9f9;fill-opacity:1" />
    <g
       id="g3042"
       style="fill:#f9f9f9;fill-opacity:1" />
    <g
       id="g3044"
       style="fill:#f9f9f9;fill-opacity:1" />
    <g
       id="g3046"
       style="fill:#f9f9f9;fill-opacity:1" />
    <g
       id="g3048"
       style="fill:#f9f9f9;fill-opacity:1" />
    <g
       id="g3050"
       style="fill:#f9f9f9;fill-opacity:1" />
    <g
       id="g3052"
       style="fill:#f9f9f9;fill-opacity:1" />
    <g
       id="g3054"
       style="fill:#f9f9f9;fill-opacity:1" />
    <g
       id="g3056"
       style="fill:#f9f9f9;fill-opacity:1" />
    <g
       id="g3058"
       style="fill:#f9f9f9;fill-opacity:1" />
  </g>
</svg>
