<?xml version="1.0" encoding="UTF-8" standalone="no"?>
<svg
   xmlns:dc="http://purl.org/dc/elements/1.1/"
   xmlns:cc="http://creativecommons.org/ns#"
   xmlns:rdf="http://www.w3.org/1999/02/22-rdf-syntax-ns#"
   xmlns:svg="http://www.w3.org/2000/svg"
   xmlns="http://www.w3.org/2000/svg"
   xmlns:sodipodi="http://sodipodi.sourceforge.net/DTD/sodipodi-0.dtd"
   xmlns:inkscape="http://www.inkscape.org/namespaces/inkscape"
   viewBox="0 0 48 48"
   id="svg2"
   version="1.1"
   inkscape:version="0.92.1 r"
   sodipodi:docname="save.svg">
  <metadata
     id="metadata51">
    <rdf:RDF>
      <cc:Work
         rdf:about="">
        <dc:format>image/svg+xml</dc:format>
        <dc:type
           rdf:resource="http://purl.org/dc/dcmitype/StillImage" />
        <dc:title />
      </cc:Work>
    </rdf:RDF>
  </metadata>
  <sodipodi:namedview
     pagecolor="#ffffff"
     bordercolor="#666666"
     borderopacity="1"
     objecttolerance="10"
     gridtolerance="10"
     guidetolerance="10"
     inkscape:pageopacity="0"
     inkscape:pageshadow="2"
     inkscape:window-width="1861"
     inkscape:window-height="1024"
     id="namedview49"
     showgrid="false"
     inkscape:zoom="9.8333332"
     inkscape:cx="18.019256"
     inkscape:cy="28.046369"
     inkscape:window-x="59"
     inkscape:window-y="28"
     inkscape:window-maximized="1"
     inkscape:current-layer="svg2" />
  <defs
     id="defs4">
    <linearGradient
       id="linearGradient3764"
       x1="1"
       x2="47"
       gradientUnits="userSpaceOnUse"
       gradientTransform="matrix(0,-1,1,0,-1.5e-6,47.999998)">
      <stop
         style="stop-color:#b5945b;stop-opacity:1"
         id="stop7" />
      <stop
         offset="1"
         style="stop-color:#bb9e69;stop-opacity:1"
         id="stop9" />
    </linearGradient>
  </defs>
  <g
     id="g11">
    <path
       d="m 36.31 5 c 5.859 4.062 9.688 10.831 9.688 18.5 c 0 12.426 -10.07 22.5 -22.5 22.5 c -7.669 0 -14.438 -3.828 -18.5 -9.688 c 1.037 1.822 2.306 3.499 3.781 4.969 c 4.085 3.712 9.514 5.969 15.469 5.969 c 12.703 0 23 -10.298 23 -23 c 0 -5.954 -2.256 -11.384 -5.969 -15.469 c -1.469 -1.475 -3.147 -2.744 -4.969 -3.781 z m 4.969 3.781 c 3.854 4.113 6.219 9.637 6.219 15.719 c 0 12.703 -10.297 23 -23 23 c -6.081 0 -11.606 -2.364 -15.719 -6.219 c 4.16 4.144 9.883 6.719 16.219 6.719 c 12.703 0 23 -10.298 23 -23 c 0 -6.335 -2.575 -12.06 -6.719 -16.219 z"
       style="opacity:0.05"
       id="path13" />
    <path
       d="m 41.28 8.781 c 3.712 4.085 5.969 9.514 5.969 15.469 c 0 12.703 -10.297 23 -23 23 c -5.954 0 -11.384 -2.256 -15.469 -5.969 c 4.113 3.854 9.637 6.219 15.719 6.219 c 12.703 0 23 -10.298 23 -23 c 0 -6.081 -2.364 -11.606 -6.219 -15.719 z"
       style="opacity:0.1"
       id="path15" />
    <path
       d="m 31.25 2.375 c 8.615 3.154 14.75 11.417 14.75 21.13 c 0 12.426 -10.07 22.5 -22.5 22.5 c -9.708 0 -17.971 -6.135 -21.12 -14.75 a 23 23 0 0 0 44.875 -7 a 23 23 0 0 0 -16 -21.875 z"
       style="opacity:0.2"
       id="path17" />
  </g>
  <g
     id="g19"
     style="fill:#5095e5;fill-opacity:1">
    <path
       d="m 24 1 c 12.703 0 23 10.297 23 23 c 0 12.703 -10.297 23 -23 23 -12.703 0 -23 -10.297 -23 -23 0 -12.703 10.297 -23 23 -23 z"
       style="fill:#5095e5;fill-opacity:1"
       id="path21" />
  </g>
  <g
     id="g45">
    <path
       d="m 40.03 7.531 c 3.712 4.084 5.969 9.514 5.969 15.469 0 12.703 -10.297 23 -23 23 c -5.954 0 -11.384 -2.256 -15.469 -5.969 4.178 4.291 10.01 6.969 16.469 6.969 c 12.703 0 23 -10.298 23 -23 0 -6.462 -2.677 -12.291 -6.969 -16.469 z"
       style="opacity:0.1"
       id="path47" />
  </g>
  <g
     id="g925"
     transform="translate(7.5932199,7.9999999)"
     style="fill:#f2f2f2">
    <g
       id="Footer"
       style="fill:#f2f2f2" />
    <g
       id="Content.Brand"
       style="fill:#f2f2f2" />
    <g
       id="Content.BrandsRestaurants"
       style="fill:#f2f2f2" />
    <g
       id="Content.AddProduct"
       style="fill:#f2f2f2" />
    <g
       id="Content.Search"
       style="fill:#f2f2f2" />
    <g
       id="Content.Ingredient"
       style="fill:#f2f2f2">
      <g
         id="Social_Icons"
         style="fill:#f2f2f2" />
    </g>
    <g
       id="Content.Index"
       style="fill:#f2f2f2" />
    <g
       id="Header"
       style="fill:#f2f2f2" />
    <g
       style="display:none;fill:#f2f2f2"
       id="GRID" />
    <g
       id="g1108"
       transform="matrix(0.05601574,0,0,0.04954773,2.876007,4.0830736)"
       style="fill:#f2f2f2;fill-opacity:1">
      <g
         id="g1047"
         style="fill:#f2f2f2;fill-opacity:1">
        <g
           id="g1045"
           style="fill:#f2f2f2;fill-opacity:1">
          <g
             id="g1043"
             style="fill:#f2f2f2;fill-opacity:1">
            <path
               id="path1035"
               d="m 153.029,90.223 h 182.404 c 5.427,0 9.873,-4.43 9.873,-9.869 V 0 H 143.137 v 80.354 c 0,5.439 4.434,9.869 9.892,9.869 z"
               inkscape:connector-curvature="0"
               style="fill:#f2f2f2;fill-opacity:1" />
            <path
               id="path1037"
               d="M 480.817,122.864 377.88,19.494 v 60.859 c 0,23.404 -19.043,42.447 -42.447,42.447 H 153.029 c -23.409,0 -42.447,-19.043 -42.447,-42.447 V 0 H 44.823 C 20.068,0 0.002,20.07 0.002,44.808 v 398.831 c 0,24.736 20.066,44.808 44.821,44.808 h 398.813 c 24.74,0 44.808,-20.068 44.808,-44.808 V 141.325 c 0,-6.933 -2.746,-13.567 -7.627,-18.461 z m -68.356,262.802 c 0,14.434 -11.703,26.154 -26.168,26.154 H 102.137 c -14.451,0 -26.153,-11.722 -26.153,-26.154 V 249.303 c 0,-14.43 11.702,-26.148 26.153,-26.148 h 284.156 c 14.465,0 26.168,11.72 26.168,26.148 z"
               inkscape:connector-curvature="0"
               style="fill:#f2f2f2;fill-opacity:1" />
            <path
               id="path1039"
               d="M 356.497,265.131 H 131.949 c -9.008,0 -16.294,7.273 -16.294,16.28 0,9.007 7.286,16.28 16.294,16.28 h 224.549 c 8.988,0 16.277,-7.273 16.277,-16.28 0,-9.007 -7.288,-16.28 -16.278,-16.28 z"
               inkscape:connector-curvature="0"
               style="fill:#f2f2f2;fill-opacity:1" />
            <path
               id="path1041"
               d="M 323.936,330.264 H 164.508 c -8.994,0 -16.28,7.273 -16.28,16.28 0,8.989 7.286,16.28 16.28,16.28 h 159.427 c 8.994,0 16.281,-7.291 16.281,-16.28 10e-4,-9.007 -7.286,-16.28 -16.28,-16.28 z"
               inkscape:connector-curvature="0"
               style="fill:#f2f2f2;fill-opacity:1" />
          </g>
        </g>
      </g>
      <g
         id="g1049"
         style="fill:#f2f2f2;fill-opacity:1" />
      <g
         id="g1051"
         style="fill:#f2f2f2;fill-opacity:1" />
      <g
         id="g1053"
         style="fill:#f2f2f2;fill-opacity:1" />
      <g
         id="g1055"
         style="fill:#f2f2f2;fill-opacity:1" />
      <g
         id="g1057"
         style="fill:#f2f2f2;fill-opacity:1" />
      <g
         id="g1059"
         style="fill:#f2f2f2;fill-opacity:1" />
      <g
         id="g1061"
         style="fill:#f2f2f2;fill-opacity:1" />
      <g
         id="g1063"
         style="fill:#f2f2f2;fill-opacity:1" />
      <g
         id="g1065"
         style="fill:#f2f2f2;fill-opacity:1" />
      <g
         id="g1067"
         style="fill:#f2f2f2;fill-opacity:1" />
      <g
         id="g1069"
         style="fill:#f2f2f2;fill-opacity:1" />
      <g
         id="g1071"
         style="fill:#f2f2f2;fill-opacity:1" />
      <g
         id="g1073"
         style="fill:#f2f2f2;fill-opacity:1" />
      <g
         id="g1075"
         style="fill:#f2f2f2;fill-opacity:1" />
      <g
         id="g1077"
         style="fill:#f2f2f2;fill-opacity:1" />
    </g>
  </g>
</svg>
