<?xml version="1.0" encoding="UTF-8" standalone="no"?>
<svg
   xmlns:dc="http://purl.org/dc/elements/1.1/"
   xmlns:cc="http://creativecommons.org/ns#"
   xmlns:rdf="http://www.w3.org/1999/02/22-rdf-syntax-ns#"
   xmlns:svg="http://www.w3.org/2000/svg"
   xmlns="http://www.w3.org/2000/svg"
   xmlns:sodipodi="http://sodipodi.sourceforge.net/DTD/sodipodi-0.dtd"
   xmlns:inkscape="http://www.inkscape.org/namespaces/inkscape"
   viewBox="0 0 48 48"
   id="svg2"
   version="1.1"
   inkscape:version="0.92.1 r"
   sodipodi:docname="save_image.svg">
  <metadata
     id="metadata51">
    <rdf:RDF>
      <cc:Work
         rdf:about="">
        <dc:format>image/svg+xml</dc:format>
        <dc:type
           rdf:resource="http://purl.org/dc/dcmitype/StillImage" />
        <dc:title />
      </cc:Work>
    </rdf:RDF>
  </metadata>
  <sodipodi:namedview
     pagecolor="#ffffff"
     bordercolor="#666666"
     borderopacity="1"
     objecttolerance="10"
     gridtolerance="10"
     guidetolerance="10"
     inkscape:pageopacity="0"
     inkscape:pageshadow="2"
     inkscape:window-width="1848"
     inkscape:window-height="1031"
     id="namedview49"
     showgrid="false"
     inkscape:zoom="6.9532167"
     inkscape:cx="-62.375164"
     inkscape:cy="16.768787"
     inkscape:window-x="72"
     inkscape:window-y="28"
     inkscape:window-maximized="1"
     inkscape:current-layer="svg2" />
  <defs
     id="defs4">
    <linearGradient
       id="linearGradient3764"
       x1="1"
       x2="47"
       gradientUnits="userSpaceOnUse"
       gradientTransform="matrix(0,-1,1,0,-1.5e-6,47.999998)">
      <stop
         style="stop-color:#b5945b;stop-opacity:1"
         id="stop7" />
      <stop
         offset="1"
         style="stop-color:#bb9e69;stop-opacity:1"
         id="stop9" />
    </linearGradient>
    <circle
       r="46.3"
       cy="50.6"
       cx="50"
       id="SVGID_1_" />
  </defs>
  <g
     id="g11">
    <path
       d="m 36.31 5 c 5.859 4.062 9.688 10.831 9.688 18.5 c 0 12.426 -10.07 22.5 -22.5 22.5 c -7.669 0 -14.438 -3.828 -18.5 -9.688 c 1.037 1.822 2.306 3.499 3.781 4.969 c 4.085 3.712 9.514 5.969 15.469 5.969 c 12.703 0 23 -10.298 23 -23 c 0 -5.954 -2.256 -11.384 -5.969 -15.469 c -1.469 -1.475 -3.147 -2.744 -4.969 -3.781 z m 4.969 3.781 c 3.854 4.113 6.219 9.637 6.219 15.719 c 0 12.703 -10.297 23 -23 23 c -6.081 0 -11.606 -2.364 -15.719 -6.219 c 4.16 4.144 9.883 6.719 16.219 6.719 c 12.703 0 23 -10.298 23 -23 c 0 -6.335 -2.575 -12.06 -6.719 -16.219 z"
       style="opacity:0.05"
       id="path13" />
    <path
       d="m 41.28 8.781 c 3.712 4.085 5.969 9.514 5.969 15.469 c 0 12.703 -10.297 23 -23 23 c -5.954 0 -11.384 -2.256 -15.469 -5.969 c 4.113 3.854 9.637 6.219 15.719 6.219 c 12.703 0 23 -10.298 23 -23 c 0 -6.081 -2.364 -11.606 -6.219 -15.719 z"
       style="opacity:0.1"
       id="path15" />
    <path
       d="m 31.25 2.375 c 8.615 3.154 14.75 11.417 14.75 21.13 c 0 12.426 -10.07 22.5 -22.5 22.5 c -9.708 0 -17.971 -6.135 -21.12 -14.75 a 23 23 0 0 0 44.875 -7 a 23 23 0 0 0 -16 -21.875 z"
       style="opacity:0.2"
       id="path17" />
  </g>
  <g
     id="g19"
     style="fill:#71c837;fill-opacity:1">
    <path
       d="m 24 1 c 12.703 0 23 10.297 23 23 c 0 12.703 -10.297 23 -23 23 -12.703 0 -23 -10.297 -23 -23 0 -12.703 10.297 -23 23 -23 z"
       style="fill:#71c837;fill-opacity:1"
       id="path21" />
  </g>
  <g
     id="g45">
    <path
       d="m 40.03 7.531 c 3.712 4.084 5.969 9.514 5.969 15.469 0 12.703 -10.297 23 -23 23 c -5.954 0 -11.384 -2.256 -15.469 -5.969 4.178 4.291 10.01 6.969 16.469 6.969 c 12.703 0 23 -10.298 23 -23 0 -6.462 -2.677 -12.291 -6.969 -16.469 z"
       style="opacity:0.1"
       id="path47" />
  </g>
  <style
     id="style1269"
     type="text/css">
	.st0{fill:#FFFFFF;}
	.st1{clip-path:url(#SVGID_2_);}
	.st2{fill:#C2C2C2;}
</style>
  <g
     id="g3139"
     transform="matrix(0.05394506,0,0,0.05619222,9.7907638,9.5249544)"
     style="fill:#f9f9f9;fill-opacity:1">
    <path
       id="path3137"
       d="M 480,96 H 448 V 32 C 448,14.336 433.656,0 416,0 H 32 C 14.336,0 0,14.336 0,32 v 352 c 0,17.656 14.336,32 32,32 h 32 v 64 c 0,17.656 14.336,32 32,32 h 384 c 17.656,0 32,-14.344 32,-32 V 128 C 512,110.336 497.656,96 480,96 Z M 32,384 V 32 h 384 v 352 z m 448,96 H 96 v -64 h 32 v 32 h 32 256 32 V 416 384 288 128 h 32 z M 236.641,131.008 c 0,24.586 19.93,44.516 44.516,44.516 24.578,0 44.5,-19.93 44.5,-44.516 v 0 c 0,-24.586 -19.922,-44.516 -44.5,-44.516 -24.587,0 -44.516,19.93 -44.516,44.516 z M 160,160 64,224 v 64 32 32 h 32 256 32 v -32 -32 -96 l -128,64 z"
       inkscape:connector-curvature="0"
       style="fill:#f9f9f9;fill-opacity:1" />
  </g>
</svg>
