<?xml version="1.0" encoding="UTF-8" standalone="no"?>
<svg
   xmlns:dc="http://purl.org/dc/elements/1.1/"
   xmlns:cc="http://creativecommons.org/ns#"
   xmlns:rdf="http://www.w3.org/1999/02/22-rdf-syntax-ns#"
   xmlns:svg="http://www.w3.org/2000/svg"
   xmlns="http://www.w3.org/2000/svg"
   xmlns:sodipodi="http://sodipodi.sourceforge.net/DTD/sodipodi-0.dtd"
   xmlns:inkscape="http://www.inkscape.org/namespaces/inkscape"
   viewBox="0 0 48 48"
   id="svg2"
   version="1.1"
   inkscape:version="0.92.1 r"
   sodipodi:docname="search_customer.svg">
  <metadata
     id="metadata51">
    <rdf:RDF>
      <cc:Work
         rdf:about="">
        <dc:format>image/svg+xml</dc:format>
        <dc:type
           rdf:resource="http://purl.org/dc/dcmitype/StillImage" />
        <dc:title />
      </cc:Work>
    </rdf:RDF>
  </metadata>
  <sodipodi:namedview
     pagecolor="#ffffff"
     bordercolor="#666666"
     borderopacity="1"
     objecttolerance="10"
     gridtolerance="10"
     guidetolerance="10"
     inkscape:pageopacity="0"
     inkscape:pageshadow="2"
     inkscape:window-width="1848"
     inkscape:window-height="1031"
     id="namedview49"
     showgrid="false"
     inkscape:zoom="6.9532167"
     inkscape:cx="-16.761827"
     inkscape:cy="23.609325"
     inkscape:window-x="72"
     inkscape:window-y="28"
     inkscape:window-maximized="1"
     inkscape:current-layer="svg2" />
  <defs
     id="defs4">
    <linearGradient
       id="linearGradient3764"
       x1="1"
       x2="47"
       gradientUnits="userSpaceOnUse"
       gradientTransform="matrix(0,-1,1,0,-1.5e-6,47.999998)">
      <stop
         style="stop-color:#b5945b;stop-opacity:1"
         id="stop7" />
      <stop
         offset="1"
         style="stop-color:#bb9e69;stop-opacity:1"
         id="stop9" />
    </linearGradient>
    <circle
       r="46.3"
       cy="50.6"
       cx="50"
       id="SVGID_1_" />
  </defs>
  <g
     id="g11">
    <path
       d="m 36.31 5 c 5.859 4.062 9.688 10.831 9.688 18.5 c 0 12.426 -10.07 22.5 -22.5 22.5 c -7.669 0 -14.438 -3.828 -18.5 -9.688 c 1.037 1.822 2.306 3.499 3.781 4.969 c 4.085 3.712 9.514 5.969 15.469 5.969 c 12.703 0 23 -10.298 23 -23 c 0 -5.954 -2.256 -11.384 -5.969 -15.469 c -1.469 -1.475 -3.147 -2.744 -4.969 -3.781 z m 4.969 3.781 c 3.854 4.113 6.219 9.637 6.219 15.719 c 0 12.703 -10.297 23 -23 23 c -6.081 0 -11.606 -2.364 -15.719 -6.219 c 4.16 4.144 9.883 6.719 16.219 6.719 c 12.703 0 23 -10.298 23 -23 c 0 -6.335 -2.575 -12.06 -6.719 -16.219 z"
       style="opacity:0.05"
       id="path13" />
    <path
       d="m 41.28 8.781 c 3.712 4.085 5.969 9.514 5.969 15.469 c 0 12.703 -10.297 23 -23 23 c -5.954 0 -11.384 -2.256 -15.469 -5.969 c 4.113 3.854 9.637 6.219 15.719 6.219 c 12.703 0 23 -10.298 23 -23 c 0 -6.081 -2.364 -11.606 -6.219 -15.719 z"
       style="opacity:0.1"
       id="path15" />
    <path
       d="m 31.25 2.375 c 8.615 3.154 14.75 11.417 14.75 21.13 c 0 12.426 -10.07 22.5 -22.5 22.5 c -9.708 0 -17.971 -6.135 -21.12 -14.75 a 23 23 0 0 0 44.875 -7 a 23 23 0 0 0 -16 -21.875 z"
       style="opacity:0.2"
       id="path17" />
  </g>
  <g
     id="g19"
     style="fill:#71c837;fill-opacity:1">
    <path
       d="m 24 1 c 12.703 0 23 10.297 23 23 c 0 12.703 -10.297 23 -23 23 -12.703 0 -23 -10.297 -23 -23 0 -12.703 10.297 -23 23 -23 z"
       style="fill:#71c837;fill-opacity:1"
       id="path21" />
  </g>
  <g
     id="g45">
    <path
       d="m 40.03 7.531 c 3.712 4.084 5.969 9.514 5.969 15.469 0 12.703 -10.297 23 -23 23 c -5.954 0 -11.384 -2.256 -15.469 -5.969 4.178 4.291 10.01 6.969 16.469 6.969 c 12.703 0 23 -10.298 23 -23 0 -6.462 -2.677 -12.291 -6.969 -16.469 z"
       style="opacity:0.1"
       id="path47" />
  </g>
  <style
     id="style1269"
     type="text/css">
	.st0{fill:#FFFFFF;}
	.st1{clip-path:url(#SVGID_2_);}
	.st2{fill:#C2C2C2;}
</style>
  <g
     id="g2007"
     transform="matrix(0.08828997,0,0,0.08503956,7.1314336,6.9162796)"
     style="fill:#f9f9f9;fill-opacity:1">
    <path
       id="path1952"
       d="M 358.805,304.752 285.624,231.57 c -7.02,-7.02 -16.292,-10.971 -26.189,-11.18 16.886,-25.248 25.23,-55.408 23.639,-86.154 C 281.26,99.177 266.613,66.22 241.831,41.439 215.109,14.717 179.525,0.002 141.634,0.002 103.743,0.002 68.16,14.717 41.437,41.439 14.716,68.16 0,103.744 0,141.635 c 0,37.891 14.716,73.475 41.438,100.195 26.72,26.721 62.3,41.436 100.186,41.436 28.075,0 55.611,-8.391 78.748,-23.824 0.197,9.69 4.09,19.078 11.201,26.186 l 73.179,73.176 c 7.219,7.219 16.817,11.195 27.027,11.195 10.209,0 19.806,-3.975 27.024,-11.193 7.22,-7.219 11.197,-16.818 11.197,-27.027 0,-10.211 -3.976,-19.808 -11.195,-27.027 z m -192.19,-187.17 c 1.093,0 1.983,0.896 1.983,1.984 v 3.275 c 0,0.674 -0.341,1.295 -0.904,1.666 l -1.924,1.254 -0.11,0.818 c -0.627,4.748 -3.291,10.9 -7.127,16.451 -4.858,7.051 -9.41,10.195 -11.768,10.195 h -10.666 c -2.358,0 -6.91,-3.146 -11.769,-10.197 -3.835,-5.549 -6.499,-11.699 -7.125,-16.445 l -0.11,-0.822 -1.924,-1.254 c -0.563,-0.371 -0.904,-0.992 -0.904,-1.666 v -3.275 c 0,-1.088 0.891,-1.984 1.983,-1.984 h 0.814 v -6.83 c 0,-0.69 0.355,-1.322 0.939,-1.688 0.589,-0.357 1.317,-0.399 1.933,-0.084 3.054,1.516 7.128,1.697 9.927,1.697 1.89,0 3.792,-0.098 5.465,-0.184 0.516,-0.025 1.017,-0.049 1.501,-0.068 0.667,-0.027 1.342,-0.041 2.014,-0.041 8.176,0 15.035,2.133 20.046,3.689 2.193,0.684 3.927,1.225 5.188,1.391 0.986,0.133 1.725,0.973 1.725,1.969 v 0.148 h 0.813 z m -25.183,85.133 c -0.773,0 -1.477,-0.447 -1.803,-1.148 l -11.57,-24.965 c -0.086,-0.195 -0.144,-0.391 -0.167,-0.592 l -1.44,-11.73 c -0.087,-0.734 0.232,-1.449 0.826,-1.871 0.6,-0.422 1.379,-0.477 2.031,-0.156 2.257,1.123 4.487,1.691 6.629,1.691 h 10.991 c 2.141,0 4.371,-0.568 6.627,-1.689 0.652,-0.322 1.432,-0.268 2.032,0.156 0.594,0.422 0.913,1.137 0.82,1.869 l -1.441,11.73 c -0.029,0.201 -0.081,0.396 -0.172,0.592 l -11.559,24.965 c -0.328,0.701 -1.031,1.148 -1.804,1.148 z m 70.947,9.664 c -1.093,1.094 -2.21,2.154 -3.344,3.191 -4.102,-20.035 -11.332,-46.938 -20.977,-49.711 l -22.095,-6.695 c 37.335,0 16.412,-88.26 -19.507,-88.26 H 136.41 c -41.952,0 -54.929,88.26 -19.506,88.26 l -22.096,6.695 c -9.596,2.758 -16.801,29.395 -20.913,49.396 -1.017,-0.938 -2.021,-1.893 -3.003,-2.875 -39.009,-39.01 -39.009,-102.482 0,-141.49 18.864,-18.865 43.987,-29.256 70.743,-29.256 26.756,0 51.881,10.391 70.746,29.256 18.865,18.865 29.254,43.988 29.254,70.744 0,26.756 -10.391,51.88 -29.256,70.745 z"
       inkscape:connector-curvature="0"
       style="fill:#f9f9f9;fill-opacity:1" />
    <g
       id="g1954"
       style="fill:#f9f9f9;fill-opacity:1" />
    <g
       id="g1956"
       style="fill:#f9f9f9;fill-opacity:1" />
    <g
       id="g1958"
       style="fill:#f9f9f9;fill-opacity:1" />
    <g
       id="g1960"
       style="fill:#f9f9f9;fill-opacity:1" />
    <g
       id="g1962"
       style="fill:#f9f9f9;fill-opacity:1" />
    <g
       id="g1964"
       style="fill:#f9f9f9;fill-opacity:1" />
    <g
       id="g1966"
       style="fill:#f9f9f9;fill-opacity:1" />
    <g
       id="g1968"
       style="fill:#f9f9f9;fill-opacity:1" />
    <g
       id="g1970"
       style="fill:#f9f9f9;fill-opacity:1" />
    <g
       id="g1972"
       style="fill:#f9f9f9;fill-opacity:1" />
    <g
       id="g1974"
       style="fill:#f9f9f9;fill-opacity:1" />
    <g
       id="g1976"
       style="fill:#f9f9f9;fill-opacity:1" />
    <g
       id="g1978"
       style="fill:#f9f9f9;fill-opacity:1" />
    <g
       id="g1980"
       style="fill:#f9f9f9;fill-opacity:1" />
    <g
       id="g1982"
       style="fill:#f9f9f9;fill-opacity:1" />
  </g>
</svg>
