<?xml version="1.0" encoding="UTF-8" standalone="no"?>
<svg
   xmlns:dc="http://purl.org/dc/elements/1.1/"
   xmlns:cc="http://creativecommons.org/ns#"
   xmlns:rdf="http://www.w3.org/1999/02/22-rdf-syntax-ns#"
   xmlns:svg="http://www.w3.org/2000/svg"
   xmlns="http://www.w3.org/2000/svg"
   xmlns:sodipodi="http://sodipodi.sourceforge.net/DTD/sodipodi-0.dtd"
   xmlns:inkscape="http://www.inkscape.org/namespaces/inkscape"
   viewBox="0 0 48 48"
   id="svg2"
   version="1.1"
   inkscape:version="0.92.1 r"
   sodipodi:docname="trash.svg">
  <metadata
     id="metadata51">
    <rdf:RDF>
      <cc:Work
         rdf:about="">
        <dc:format>image/svg+xml</dc:format>
        <dc:type
           rdf:resource="http://purl.org/dc/dcmitype/StillImage" />
        <dc:title />
      </cc:Work>
    </rdf:RDF>
  </metadata>
  <sodipodi:namedview
     pagecolor="#ffffff"
     bordercolor="#666666"
     borderopacity="1"
     objecttolerance="10"
     gridtolerance="10"
     guidetolerance="10"
     inkscape:pageopacity="0"
     inkscape:pageshadow="2"
     inkscape:window-width="1848"
     inkscape:window-height="1031"
     id="namedview49"
     showgrid="false"
     inkscape:zoom="9.8333334"
     inkscape:cx="-5.2881349"
     inkscape:cy="31.976822"
     inkscape:window-x="72"
     inkscape:window-y="28"
     inkscape:window-maximized="1"
     inkscape:current-layer="svg2" />
  <defs
     id="defs4">
    <linearGradient
       id="linearGradient3764"
       x1="1"
       x2="47"
       gradientUnits="userSpaceOnUse"
       gradientTransform="matrix(0,-1,1,0,-1.5e-6,47.999998)">
      <stop
         style="stop-color:#b5945b;stop-opacity:1"
         id="stop7" />
      <stop
         offset="1"
         style="stop-color:#bb9e69;stop-opacity:1"
         id="stop9" />
    </linearGradient>
  </defs>
  <g
     id="g11">
    <path
       d="m 36.31 5 c 5.859 4.062 9.688 10.831 9.688 18.5 c 0 12.426 -10.07 22.5 -22.5 22.5 c -7.669 0 -14.438 -3.828 -18.5 -9.688 c 1.037 1.822 2.306 3.499 3.781 4.969 c 4.085 3.712 9.514 5.969 15.469 5.969 c 12.703 0 23 -10.298 23 -23 c 0 -5.954 -2.256 -11.384 -5.969 -15.469 c -1.469 -1.475 -3.147 -2.744 -4.969 -3.781 z m 4.969 3.781 c 3.854 4.113 6.219 9.637 6.219 15.719 c 0 12.703 -10.297 23 -23 23 c -6.081 0 -11.606 -2.364 -15.719 -6.219 c 4.16 4.144 9.883 6.719 16.219 6.719 c 12.703 0 23 -10.298 23 -23 c 0 -6.335 -2.575 -12.06 -6.719 -16.219 z"
       style="opacity:0.05"
       id="path13" />
    <path
       d="m 41.28 8.781 c 3.712 4.085 5.969 9.514 5.969 15.469 c 0 12.703 -10.297 23 -23 23 c -5.954 0 -11.384 -2.256 -15.469 -5.969 c 4.113 3.854 9.637 6.219 15.719 6.219 c 12.703 0 23 -10.298 23 -23 c 0 -6.081 -2.364 -11.606 -6.219 -15.719 z"
       style="opacity:0.1"
       id="path15" />
    <path
       d="m 31.25 2.375 c 8.615 3.154 14.75 11.417 14.75 21.13 c 0 12.426 -10.07 22.5 -22.5 22.5 c -9.708 0 -17.971 -6.135 -21.12 -14.75 a 23 23 0 0 0 44.875 -7 a 23 23 0 0 0 -16 -21.875 z"
       style="opacity:0.2"
       id="path17" />
  </g>
  <g
     id="g19"
     style="fill:#ff0000;fill-opacity:1">
    <path
       d="m 24 1 c 12.703 0 23 10.297 23 23 c 0 12.703 -10.297 23 -23 23 -12.703 0 -23 -10.297 -23 -23 0 -12.703 10.297 -23 23 -23 z"
       style="fill:#ff0000;fill-opacity:1"
       id="path21" />
  </g>
  <g
     id="g45">
    <path
       d="m 40.03 7.531 c 3.712 4.084 5.969 9.514 5.969 15.469 0 12.703 -10.297 23 -23 23 c -5.954 0 -11.384 -2.256 -15.469 -5.969 4.178 4.291 10.01 6.969 16.469 6.969 c 12.703 0 23 -10.298 23 -23 0 -6.462 -2.677 -12.291 -6.969 -16.469 z"
       style="opacity:0.1"
       id="path47" />
  </g>
  <g
     id="g5210"
     transform="matrix(0.03115363,0,0,0.03544952,8.2189336,5.6849006)"
     style="fill:#f9f9f9;fill-opacity:1">
    <path
       id="path5208"
       d="m 377.5,397.9 v 367.6 c 0,6 -1.9,10.8 -5.7,14.7 -3.8,3.8 -8.7,5.7 -14.7,5.7 h -40.8 c -6,0 -10.8,-1.9 -14.7,-5.7 -3.8,-3.8 -5.7,-8.7 -5.7,-14.7 V 397.9 c 0,-6 1.9,-10.8 5.7,-14.7 3.8,-3.8 8.7,-5.7 14.7,-5.7 h 40.8 c 6,0 10.8,1.9 14.7,5.7 3.8,3.9 5.7,8.8 5.7,14.7 z m 163.3,0 v 367.6 c 0,6 -1.9,10.8 -5.7,14.7 -3.8,3.8 -8.7,5.7 -14.7,5.7 h -40.8 c -6,0 -10.8,-1.9 -14.7,-5.7 -3.8,-3.8 -5.7,-8.7 -5.7,-14.7 V 397.9 c 0,-6 1.9,-10.8 5.7,-14.7 3.8,-3.8 8.7,-5.7 14.7,-5.7 h 40.8 c 6,0 10.8,1.9 14.7,5.7 3.8,3.9 5.7,8.8 5.7,14.7 z m 163.4,0 v 367.6 c 0,6 -1.9,10.8 -5.7,14.7 -3.8,3.8 -8.7,5.7 -14.7,5.7 H 643 c -6,0 -10.8,-1.9 -14.7,-5.7 -3.8,-3.8 -5.7,-8.7 -5.7,-14.7 V 397.9 c 0,-6 1.9,-10.8 5.7,-14.7 3.8,-3.8 8.7,-5.7 14.7,-5.7 h 40.8 c 6,0 10.8,1.9 14.7,5.7 3.8,3.9 5.7,8.8 5.7,14.7 z M 785.9,860 V 255.1 H 214.2 V 860 c 0,9.3 1.5,18 4.5,25.9 3,7.9 6.1,13.7 9.2,17.2 3.1,3.5 5.4,5.4 6.7,5.4 h 531 c 1.3,0 3.5,-1.8 6.7,-5.4 3.2,-3.6 6.3,-9.4 9.2,-17.2 2.9,-7.9 4.4,-16.5 4.4,-25.9 z M 357.1,173.4 H 643 L 612.3,98.7 c -3,-3.8 -6.6,-6.1 -10.9,-7 H 399.2 c -4.2,0.9 -7.9,3.2 -10.9,7 z m 592.1,20.4 v 40.8 c 0,6 -1.9,10.8 -5.7,14.7 -3.8,3.9 -8.7,5.7 -14.7,5.7 h -61.2 v 604.9 c 0,35.3 -10,65.8 -30,91.6 -20,25.7 -44,38.6 -72.1,38.6 h -531 c -28.1,0 -52.1,-12.4 -72.1,-37.3 -20,-24.9 -30,-55 -30,-90.3 V 254.9 H 71.1 c -6,0 -10.8,-1.9 -14.7,-5.7 -3.8,-3.8 -5.7,-8.7 -5.7,-14.7 v -40.8 c 0,-6 1.9,-10.8 5.7,-14.7 3.8,-3.8 8.7,-5.7 14.7,-5.7 H 268.3 L 313,66.8 C 319.4,51.1 330.9,37.7 347.4,26.6 363.9,15.5 380.8,10 397.8,10 H 602 c 17,0 33.8,5.5 50.4,16.6 16.6,11.1 28.1,24.5 34.4,40.2 l 44.7,106.6 h 197.2 c 6,0 10.8,1.9 14.7,5.7 3.8,3.8 5.7,8.7 5.7,14.7 z"
       inkscape:connector-curvature="0"
       style="fill:#f9f9f9;fill-opacity:1" />
  </g>
</svg>
