<?xml version="1.0" encoding="utf-8"?>
<!-- Svg Vector Icons : http://www.onlinewebfonts.com/icon -->
<!DOCTYPE svg PUBLIC "-//W3C//DTD SVG 1.1//EN" "http://www.w3.org/Graphics/SVG/1.1/DTD/svg11.dtd">
<svg version="1.1" xmlns="http://www.w3.org/2000/svg" xmlns:xlink="http://www.w3.org/1999/xlink" x="0px" y="0px" viewBox="0 0 1000 1000" enable-background="new 0 0 1000 1000" xml:space="preserve">
<metadata> Svg Vector Icons : http://www.onlinewebfonts.com/icon </metadata>
<g><path d="M377.5,397.9v367.6c0,6-1.9,10.8-5.7,14.7c-3.8,3.8-8.7,5.7-14.7,5.7h-40.8c-6,0-10.8-1.9-14.7-5.7c-3.8-3.8-5.7-8.7-5.7-14.7V397.9c0-6,1.9-10.8,5.7-14.7c3.8-3.8,8.7-5.7,14.7-5.7h40.8c6,0,10.8,1.9,14.7,5.7C375.6,387.1,377.5,392,377.5,397.9L377.5,397.9z M540.8,397.9v367.6c0,6-1.9,10.8-5.7,14.7c-3.8,3.8-8.7,5.7-14.7,5.7h-40.8c-6,0-10.8-1.9-14.7-5.7c-3.8-3.8-5.7-8.7-5.7-14.7V397.9c0-6,1.9-10.8,5.7-14.7c3.8-3.8,8.7-5.7,14.7-5.7h40.8c6,0,10.8,1.9,14.7,5.7C538.9,387.1,540.8,392,540.8,397.9L540.8,397.9z M704.2,397.9v367.6c0,6-1.9,10.8-5.7,14.7c-3.8,3.8-8.7,5.7-14.7,5.7H643c-6,0-10.8-1.9-14.7-5.7c-3.8-3.8-5.7-8.7-5.7-14.7V397.9c0-6,1.9-10.8,5.7-14.7c3.8-3.8,8.7-5.7,14.7-5.7h40.8c6,0,10.8,1.9,14.7,5.7C702.3,387.1,704.2,392,704.2,397.9L704.2,397.9z M785.9,860V255.1H214.2V860c0,9.3,1.5,18,4.5,25.9c3,7.9,6.1,13.7,9.2,17.2s5.4,5.4,6.7,5.4h531c1.3,0,3.5-1.8,6.7-5.4s6.3-9.4,9.2-17.2C784.4,878,785.9,869.4,785.9,860L785.9,860z M357.1,173.4H643l-30.7-74.7c-3-3.8-6.6-6.1-10.9-7H399.2c-4.2,0.9-7.9,3.2-10.9,7L357.1,173.4z M949.2,193.8v40.8c0,6-1.9,10.8-5.7,14.7s-8.7,5.7-14.7,5.7h-61.2v604.9c0,35.3-10,65.8-30,91.6c-20,25.7-44,38.6-72.1,38.6h-531c-28.1,0-52.1-12.4-72.1-37.3c-20-24.9-30-55-30-90.3V254.9H71.1c-6,0-10.8-1.9-14.7-5.7c-3.8-3.8-5.7-8.7-5.7-14.7v-40.8c0-6,1.9-10.8,5.7-14.7c3.8-3.8,8.7-5.7,14.7-5.7h197.2L313,66.8c6.4-15.7,17.9-29.1,34.4-40.2S380.8,10,397.8,10H602c17,0,33.8,5.5,50.4,16.6s28.1,24.5,34.4,40.2l44.7,106.6h197.2c6,0,10.8,1.9,14.7,5.7c3.8,3.8,5.7,8.7,5.7,14.7H949.2z"/></g>
</svg>